<svg width="24" height="24" viewBox="0 0 24 24" fill="none" xmlns="http://www.w3.org/2000/svg">
<path d="M3.7998 3.80005V20.3H20.2998V3.80005H3.7998ZM19.3292 5.74123H14.4763V4.77064H19.3292V5.74123ZM13.5057 4.77064V6.71181H19.3292V7.6824H4.77039V4.77064H13.5057ZM4.77039 19.3295V8.65299H19.3292V19.3295H4.77039Z" fill="#027BFF"/>
<path d="M5.74072 5.74146H6.71131V6.71204H5.74072V5.74146Z" fill="#027BFF"/>
<path d="M7.68213 5.74146H8.65272V6.71204H7.68213V5.74146Z" fill="#027BFF"/>
<path d="M9.62256 5.74146H10.5931V6.71204H9.62256V5.74146Z" fill="#027BFF"/>
<path d="M7.68213 13.5056H10.5939V9.62329H7.68213V13.5056ZM8.65272 10.5939H9.62331V12.5351H8.65272V10.5939Z" fill="#027BFF"/>
<path d="M11.563 9.62329H12.5336V13.5056H11.563V9.62329Z" fill="#027BFF"/>
<path d="M5.74072 9.62329H6.71131V13.5056H5.74072V9.62329Z" fill="#027BFF"/>
<path d="M16.4162 9.62329H13.5044V13.5056H16.4162V9.62329ZM15.4456 12.5351H14.475V10.5939H15.4456V12.5351Z" fill="#027BFF"/>
<path d="M17.3872 9.62329H18.3578V13.5056H17.3872V9.62329Z" fill="#027BFF"/>
<path d="M7.68213 18.3592H10.5939V14.4768H7.68213V18.3592ZM8.65272 15.4474H9.62331V17.3886H8.65272V15.4474Z" fill="#027BFF"/>
<path d="M11.563 14.4768H12.5336V18.3592H11.563V14.4768Z" fill="#027BFF"/>
<path d="M13.5044 14.4768H14.475V18.3592H13.5044V14.4768Z" fill="#027BFF"/>
<path d="M5.74072 14.4768H6.71131V18.3592H5.74072V14.4768Z" fill="#027BFF"/>
<path d="M15.4458 18.3592H18.3576V14.4768H15.4458V18.3592ZM16.4164 15.4474H17.387V17.3886H16.4164V15.4474Z" fill="#027BFF"/>
</svg>
