<svg width="24" height="24" viewBox="0 0 24 24" fill="none" xmlns="http://www.w3.org/2000/svg">
<path d="M20.9832 6.93211V3.99805C20.9832 3.72299 20.7602 3.5 20.4852 3.5C19.7213 3.5 19.3001 4.01584 18.9617 4.43035C18.598 4.87577 18.2839 5.26043 17.5511 5.26043C16.8183 5.26043 16.5042 4.87577 16.1406 4.43035C15.8021 4.01584 15.3809 3.5 14.617 3.5C14.342 3.5 14.119 3.72299 14.119 3.99805V6.93211C14.119 7.90768 14.5281 8.78946 15.1838 9.4149C15.1408 10.2788 14.4245 10.9685 13.5501 10.9685H13.0166C10.557 10.9685 8.52665 12.8415 8.27683 15.2362H6.61508C3.12935 15.3674 3.12726 20.3718 6.61508 20.5H18.7559C19.3384 20.5 19.8589 20.1522 20.0819 19.614C20.276 19.1453 20.2087 18.6194 19.9163 18.2193V9.41686C20.5732 8.79128 20.9832 7.90868 20.9832 6.93211ZM8.74895 19.5039H6.61508C4.4517 19.4253 4.44413 16.3164 6.61508 16.2323H8.2509V17.367L6.61419 17.3701C5.95417 17.3958 5.95637 18.343 6.61595 18.3662L8.74895 18.3624C9.50545 18.3904 9.50488 19.4761 8.74895 19.5039ZM10.2071 19.5039C10.5442 18.6918 10.0633 17.7005 9.24699 17.4478V15.7343C9.35603 12.8606 13.4768 12.861 13.5855 15.7343C13.5855 16.6363 12.8517 17.3701 11.9497 17.3701C11.6747 17.3701 11.4517 17.5931 11.4517 17.8681C11.4517 18.1432 11.6747 18.3662 11.9497 18.3662H13.0167C13.7451 18.3662 14.3638 18.8447 14.575 19.5039H10.2071V19.5039ZM16.9382 18.7597C17.0598 18.8856 17.095 19.0704 17.0277 19.2327C16.9595 19.3975 16.8002 19.5039 16.622 19.5039H15.6013C15.4232 18.5779 14.7583 17.823 13.8842 17.517C15.7593 15.4068 13.5942 12.1216 10.9104 12.6092C11.5122 12.2024 12.2372 11.9646 13.0166 11.9646H13.5501C14.7579 11.9646 15.7777 11.1464 16.086 10.0353C16.932 10.4534 18.0589 10.4717 18.9201 10.079V14.6679C18.9201 15.5714 18.1895 16.3031 17.2843 16.3031C17.0093 16.3031 16.7863 16.5261 16.7863 16.8012V18.4016C16.7863 18.5391 16.8429 18.6675 16.9382 18.7597ZM19.1616 19.2327C19.0934 19.3975 18.9341 19.5039 18.7559 19.5039H17.9885C18.1303 19.0645 18.0521 18.5884 17.7824 18.2193V17.2525C18.1981 17.1734 18.5868 16.9953 18.9202 16.73V18.4016C18.9202 18.5391 18.9768 18.6675 19.0721 18.7597C19.1937 18.8856 19.2289 19.0704 19.1616 19.2327ZM17.5511 9.36809C16.2079 9.36809 15.1151 8.27531 15.1151 6.93207V4.76391C15.189 4.8426 15.2711 4.94055 15.369 5.06031C15.7811 5.56513 16.3457 6.25652 17.5511 6.25652C18.7565 6.25652 19.3211 5.56513 19.7332 5.06031C19.831 4.94055 19.9131 4.8426 19.9871 4.76391V6.93207C19.9871 8.27531 18.8943 9.36809 17.5511 9.36809Z" fill="#027BFF"/>
</svg>
