<svg width="24" height="24" viewBox="0 0 24 24" fill="none" xmlns="http://www.w3.org/2000/svg">
<g clip-path="url(#clip0_1237_379)">
<path d="M15.2695 3.5H7.73079C6.88789 3.5 6.20215 4.18574 6.20215 5.02864V18.9714C6.20215 19.8143 6.88789 20.5 7.73079 20.5H15.2695C16.1124 20.5 16.7982 19.8143 16.7982 18.9714V5.02864C16.7981 4.18574 16.1124 3.5 15.2695 3.5ZM7.73079 4.49609H15.2695C15.5632 4.49609 15.8021 4.73499 15.8021 5.02864V5.49219H7.19824V5.02864C7.19824 4.73499 7.43714 4.49609 7.73079 4.49609ZM15.802 16.1836H7.19824V6.48828H15.8021V16.1836H15.802ZM15.2695 19.5039H7.73079C7.43714 19.5039 7.19824 19.265 7.19824 18.9714V17.1797H15.8021V18.9714C15.802 19.265 15.5631 19.5039 15.2695 19.5039Z" fill="#027BFF"/>
<path d="M12.0474 17.8438H10.9526C10.6776 17.8438 10.4546 18.0667 10.4546 18.3418C10.4546 18.6169 10.6776 18.8398 10.9526 18.8398H12.0474C12.3225 18.8398 12.5455 18.6169 12.5455 18.3418C12.5455 18.0667 12.3225 17.8438 12.0474 17.8438Z" fill="#027BFF"/>
<path d="M11.5001 14.9298C13.4145 14.9298 14.972 13.3723 14.972 11.4579C14.972 9.54354 13.4145 7.98608 11.5001 7.98608C9.58578 7.98608 8.02832 9.54354 8.02832 11.4579C8.02832 13.3723 9.58578 14.9298 11.5001 14.9298ZM11.5001 8.98214C12.8653 8.98214 13.9759 10.0928 13.9759 11.4579C13.9759 12.823 12.8653 13.9336 11.5001 13.9336C10.135 13.9336 9.02441 12.823 9.02441 11.4579C9.02441 10.0928 10.135 8.98214 11.5001 8.98214Z" fill="#027BFF"/>
<path d="M11.3596 11.8415C11.3599 11.8416 11.3601 11.8417 11.3603 11.8418C11.4501 11.8739 11.6886 11.9591 11.7196 12.0267C11.7384 12.068 11.7211 12.1283 11.6824 12.1556C11.6077 12.2084 11.4479 12.2107 11.3403 12.1606C11.2943 12.1392 11.2777 12.1152 11.2657 12.0832C11.1856 11.8685 10.9465 11.7595 10.7318 11.8395C10.517 11.9197 10.4079 12.1588 10.4881 12.3735C10.5785 12.6158 10.7521 12.8024 10.9899 12.9132C11.021 12.9276 11.0528 12.9403 11.0849 12.9519V13.0227C11.0849 13.2519 11.2707 13.4377 11.5 13.4377C11.7292 13.4377 11.915 13.2519 11.915 13.0227V12.9592C12.0033 12.9278 12.0866 12.8863 12.1613 12.8335C12.5292 12.5737 12.6609 12.0891 12.4745 11.6814C12.2979 11.2952 11.8858 11.148 11.6397 11.06C11.6394 11.06 11.6392 11.0599 11.6389 11.0598C11.5486 11.0275 11.3113 10.9426 11.2804 10.8751C11.2616 10.8338 11.2789 10.7735 11.3176 10.7462C11.3923 10.6934 11.5521 10.6911 11.6597 10.7411C11.7057 10.7626 11.7223 10.7866 11.7343 10.8186C11.8144 11.0333 12.0535 11.1423 12.2682 11.0622C12.483 10.9821 12.5921 10.743 12.5119 10.5282C12.4215 10.286 12.2479 10.0994 12.0101 9.98862C11.979 9.97415 11.9472 9.9616 11.9151 9.94991V9.89307C11.9151 9.66387 11.7293 9.47803 11.5 9.47803C11.2708 9.47803 11.085 9.66387 11.085 9.89307V9.94234C10.9967 9.97368 10.9135 10.0154 10.8387 10.0682C10.4708 10.3281 10.3391 10.8127 10.5255 11.2204C10.702 11.6063 11.1134 11.7536 11.3596 11.8415Z" fill="#027BFF"/>
</g>
<defs>
<clipPath id="clip0_1237_379">
<rect width="17" height="17" fill="white" transform="translate(3 3.5)"/>
</clipPath>
</defs>
</svg>
