<svg width="24" height="24" viewBox="0 0 24 24" fill="none" xmlns="http://www.w3.org/2000/svg">
<path d="M18.4492 9.26648L19.4429 8.27275C19.67 8.04568 19.67 7.67752 19.4429 7.45051L18.144 6.15153C17.9168 5.92452 17.5488 5.92452 17.3217 6.15153L16.3103 7.16294C15.5088 6.65346 14.5993 6.29978 13.6243 6.14454C14.4131 5.90614 14.9186 5.4124 14.9186 4.79994C14.9186 3.93088 13.9015 3.30005 12.5002 3.30005C11.0989 3.30005 10.0818 3.93088 10.0818 4.8C10.0818 5.41246 10.5873 5.9062 11.3761 6.1446C10.4011 6.29983 9.49153 6.65351 8.69007 7.163L7.67865 6.15158C7.45153 5.92457 7.08348 5.92457 6.85641 6.15158L5.55743 7.45051C5.33036 7.67758 5.33036 8.04574 5.55743 8.27275L6.55116 9.26648C5.81008 10.3898 5.37793 11.7342 5.37793 13.1778C5.37799 17.105 8.57296 20.3 12.5002 20.3C16.4274 20.3 19.6224 17.105 19.6224 13.1778C19.6224 11.7342 19.1903 10.3899 18.4492 9.26648ZM17.0926 13.7592H18.4312C18.3137 14.9668 17.8345 16.07 17.1033 16.9586L13.8887 13.7441C13.9604 13.5693 14.0001 13.3781 14.0001 13.1778C14.0001 12.5568 13.6207 12.0228 13.0816 11.7952V7.24685C14.2891 7.36431 15.3924 7.84357 16.281 8.57474L15.763 9.0927C15.536 9.31977 15.536 9.68787 15.763 9.91494C15.8766 10.0284 16.0254 10.0852 16.1742 10.0852C16.323 10.0852 16.4718 10.0284 16.5853 9.91494L17.1033 9.39698C17.8345 10.2856 18.3137 11.3888 18.4312 12.5964H17.0926C16.7716 12.5964 16.5112 12.8567 16.5112 13.1778C16.5113 13.4989 16.7716 13.7592 17.0926 13.7592ZM12.5002 17.1889C12.1791 17.1889 11.9188 17.4492 11.9188 17.7703V19.1088C10.7111 18.9914 9.60795 18.5121 8.71932 17.7809L9.23733 17.2629C9.4644 17.0359 9.4644 16.6678 9.23733 16.4407C9.01032 16.2138 8.64227 16.2137 8.41509 16.4407L7.89708 16.9587C7.16591 16.07 6.68664 14.9669 6.56919 13.7592H7.90772C8.22878 13.7592 8.48916 13.4989 8.48916 13.1778C8.48916 12.8567 8.22884 12.5964 7.90772 12.5964H6.56919C6.68664 11.3887 7.16591 10.2856 7.89708 9.39692L8.41503 9.91488C8.5286 10.0284 8.67736 10.0852 8.82618 10.0852C8.975 10.0852 9.12383 10.0284 9.23733 9.91488C9.4644 9.68776 9.4644 9.31965 9.23733 9.09264L8.71937 8.57469C9.60801 7.84351 10.7112 7.36425 11.9188 7.2468V11.7952C11.3797 12.0228 11.0003 12.5568 11.0003 13.1778C11.0003 14.0048 11.6732 14.6777 12.5002 14.6777C12.7005 14.6777 12.8916 14.6379 13.0665 14.5664L16.281 17.7809C15.3924 18.5121 14.2891 18.9913 13.0816 19.1088V17.7703C13.0816 17.4492 12.8212 17.1889 12.5002 17.1889ZM12.5002 12.8407C12.6861 12.8407 12.8373 12.9919 12.8373 13.1778C12.8373 13.3637 12.686 13.5149 12.5002 13.5149C12.3143 13.5149 12.1631 13.3636 12.1631 13.1778C12.1631 12.9919 12.3143 12.8407 12.5002 12.8407ZM17.7329 7.38491L18.2096 7.8616L17.7265 8.3447C17.5737 8.17968 17.4134 8.02187 17.2459 7.8719L17.7329 7.38491ZM12.5002 4.46286C13.1911 4.46286 13.6176 4.67722 13.7351 4.8C13.6176 4.92272 13.191 5.13702 12.5002 5.13702C11.8094 5.13702 11.3828 4.92266 11.2653 4.8C11.3828 4.67722 11.8093 4.46286 12.5002 4.46286ZM6.79082 7.86166L7.26751 7.38497L7.7545 7.87196C7.58696 8.02198 7.42663 8.17974 7.27392 8.34476L6.79082 7.86166Z" fill="#027BFF"/>
</svg>
