<svg width="24" height="24" viewBox="0 0 24 24" fill="none" xmlns="http://www.w3.org/2000/svg">
<path d="M17.8856 11.7451C19.1262 11.7451 20.1355 10.7358 20.1355 9.49521C20.1355 8.25463 19.1262 7.24536 17.8856 7.24536C16.6451 7.24536 15.6357 8.25463 15.6357 9.49521C15.6357 10.7358 16.6451 11.7451 17.8856 11.7451ZM17.8856 8.38672C18.4968 8.38672 18.9942 8.884 18.9942 9.49525C18.9942 10.1065 18.4969 10.6038 17.8856 10.6038C17.2744 10.6038 16.7771 10.1065 16.7771 9.49525C16.7771 8.884 17.2744 8.38672 17.8856 8.38672Z" fill="#027BFF"/>
<path d="M21.5 16.3105C21.5 14.3176 19.8787 12.6963 17.8859 12.6963C16.7889 12.6963 15.7743 13.1867 15.0962 14.0124C14.2679 13.2878 13.1844 12.848 12 12.848C10.8156 12.848 9.73214 13.2878 8.90384 14.0124C8.22567 13.1867 7.21111 12.6963 6.11419 12.6963C4.12132 12.6963 2.5 14.3176 2.5 16.3105V16.8811H7.34061C7.30884 17.1016 7.29207 17.3268 7.29207 17.5559V18.1266H16.708V17.5559C16.708 17.3268 16.6912 17.1016 16.6594 16.8811H21.5V16.3105ZM3.70782 15.7398C3.9661 14.6504 4.94703 13.8376 6.11422 13.8376C6.92464 13.8376 7.66958 14.229 8.12991 14.8784C7.94369 15.1467 7.78451 15.4351 7.65664 15.7398H3.70782ZM8.479 16.9853C8.753 15.289 10.2276 13.9893 12 13.9893C13.7725 13.9893 15.2471 15.289 15.521 16.9853H8.479ZM16.3434 15.7398C16.2155 15.4351 16.0564 15.1467 15.8702 14.8784C16.3305 14.229 17.0754 13.8376 17.8859 13.8376C19.0531 13.8376 20.034 14.6504 20.2923 15.7398H16.3434Z" fill="#027BFF"/>
<path d="M6.11411 11.745C7.35469 11.745 8.36396 10.7358 8.36396 9.49517C8.36396 8.25459 7.35469 7.24536 6.11411 7.24536C4.87353 7.24536 3.86426 8.25463 3.86426 9.49521C3.86426 10.7358 4.87353 11.745 6.11411 11.745ZM6.11411 8.38668C6.72532 8.38668 7.22263 8.88396 7.22263 9.49521C7.22263 10.1065 6.72532 10.6037 6.11411 10.6037C5.50289 10.6037 5.00558 10.1064 5.00558 9.49517C5.00558 8.88392 5.50289 8.38668 6.11411 8.38668Z" fill="#027BFF"/>
<path d="M11.9998 11.7066C13.5731 11.7066 14.8531 10.4266 14.8531 8.8533C14.8531 7.27999 13.5731 6 11.9998 6C10.4265 6 9.14648 7.27999 9.14648 8.8533C9.14648 10.4266 10.4265 11.7066 11.9998 11.7066ZM11.9998 7.14132C12.9438 7.14132 13.7118 7.90932 13.7118 8.8533C13.7118 9.79729 12.9438 10.5653 11.9998 10.5653C11.0558 10.5653 10.2878 9.79729 10.2878 8.8533C10.2878 7.90932 11.0558 7.14132 11.9998 7.14132Z" fill="#027BFF"/>
</svg>
